<svg xmlns="http://www.w3.org/2000/svg" viewBox="0 0 502.643 502.643"><path d="M251.256 237.6c37.166 0 67.042-30.048 67.042-66.977.043-37.037-29.876-67-67.042-67-36.908 0-66.87 29.962-66.87 67 0 36.973 29.962 66.977 66.87 66.977zm53.776 10.916h-107.38c-19.198 0-34.923 17.602-34.923 39.194v107.854c0 1.186.604 2.243.67 3.473h175.823c.13-1.23.626-2.286.626-3.473V287.7c.064-21.592-15.66-39.194-34.816-39.194zm126.556 21.054c29.832 0 53.754-24.008 53.754-53.668s-23.922-53.7-53.754-53.7c-29.617 0-53.582 24.05-53.582 53.7-.064 29.64 23.966 53.668 53.582 53.668zm43.12 8.757h-86.046c-15.445 0-28.064 14.107-28.064 31.472v86.413c0 .928.453 1.812.518 2.826h141.03c.065-1.014.496-1.898.496-2.826V309.8c.065-17.365-12.532-31.472-27.934-31.472zM71 269.56c29.8 0 53.733-24.008 53.733-53.668S100.8 162.18 71 162.18c-29.638 0-53.603 24.05-53.603 53.7S41.373 269.56 71 269.56zm43.1 8.757H27.977C12.576 278.317 0 292.424 0 309.8v86.413c0 .928.453 1.812.54 2.826h141.03c.065-1.014.475-1.898.475-2.826V309.8c.043-17.365-12.555-31.472-27.935-31.472z"/></svg>